<mxfile host="Electron" agent="Mozilla/5.0 (Windows NT 10.0; Win64; x64) AppleWebKit/537.36 (KHTML, like Gecko) draw.io/26.0.9 Chrome/128.0.6613.186 Electron/32.2.5 Safari/537.36" version="26.0.9">
  <diagram id="R2lEEEUBdFMjLlhIrx00" name="Page-1">
    <mxGraphModel dx="1900" dy="621" grid="1" gridSize="10" guides="1" tooltips="1" connect="1" arrows="1" fold="1" page="1" pageScale="1" pageWidth="850" pageHeight="1100" math="0" shadow="0" extFonts="Permanent Marker^https://fonts.googleapis.com/css?family=Permanent+Marker">
      <root>
        <mxCell id="0" />
        <mxCell id="1" parent="0" />
        <mxCell id="pWOpX_RLzRtSu-hWJfGu-17" style="edgeStyle=orthogonalEdgeStyle;rounded=0;orthogonalLoop=1;jettySize=auto;html=1;entryX=0.5;entryY=1;entryDx=0;entryDy=0;" parent="1" source="pWOpX_RLzRtSu-hWJfGu-1" target="pWOpX_RLzRtSu-hWJfGu-3" edge="1">
          <mxGeometry relative="1" as="geometry" />
        </mxCell>
        <mxCell id="pWOpX_RLzRtSu-hWJfGu-18" style="edgeStyle=orthogonalEdgeStyle;rounded=0;orthogonalLoop=1;jettySize=auto;html=1;exitX=0.75;exitY=0;exitDx=0;exitDy=0;entryX=0;entryY=1;entryDx=0;entryDy=0;" parent="1" source="pWOpX_RLzRtSu-hWJfGu-1" target="pWOpX_RLzRtSu-hWJfGu-4" edge="1">
          <mxGeometry relative="1" as="geometry" />
        </mxCell>
        <mxCell id="pWOpX_RLzRtSu-hWJfGu-19" style="edgeStyle=orthogonalEdgeStyle;rounded=0;orthogonalLoop=1;jettySize=auto;html=1;exitX=1;exitY=0.25;exitDx=0;exitDy=0;" parent="1" source="pWOpX_RLzRtSu-hWJfGu-1" target="pWOpX_RLzRtSu-hWJfGu-5" edge="1">
          <mxGeometry relative="1" as="geometry" />
        </mxCell>
        <mxCell id="pWOpX_RLzRtSu-hWJfGu-1" value="&lt;b&gt;&lt;font style=&quot;font-size: 14px;&quot;&gt;Musician&lt;/font&gt;&lt;/b&gt;" style="rounded=0;whiteSpace=wrap;html=1;" parent="1" vertex="1">
          <mxGeometry x="80" y="230" width="120" height="60" as="geometry" />
        </mxCell>
        <mxCell id="pWOpX_RLzRtSu-hWJfGu-2" value="&lt;u&gt;ID&lt;/u&gt;" style="ellipse;whiteSpace=wrap;html=1;" parent="1" vertex="1">
          <mxGeometry x="20" y="150" width="80" height="50" as="geometry" />
        </mxCell>
        <mxCell id="pWOpX_RLzRtSu-hWJfGu-3" value="&amp;nbsp; &amp;nbsp;Name&lt;span style=&quot;white-space: pre;&quot;&gt;&#x9;&lt;/span&gt;" style="ellipse;whiteSpace=wrap;html=1;" parent="1" vertex="1">
          <mxGeometry x="90" y="100" width="80" height="50" as="geometry" />
        </mxCell>
        <mxCell id="pWOpX_RLzRtSu-hWJfGu-4" value="Address" style="ellipse;whiteSpace=wrap;html=1;" parent="1" vertex="1">
          <mxGeometry x="180" y="100" width="80" height="50" as="geometry" />
        </mxCell>
        <mxCell id="pWOpX_RLzRtSu-hWJfGu-5" value="phone" style="ellipse;whiteSpace=wrap;html=1;" parent="1" vertex="1">
          <mxGeometry x="220" y="160" width="80" height="50" as="geometry" />
        </mxCell>
        <mxCell id="pWOpX_RLzRtSu-hWJfGu-6" value="street" style="ellipse;whiteSpace=wrap;html=1;" parent="1" vertex="1">
          <mxGeometry x="140" y="30" width="80" height="50" as="geometry" />
        </mxCell>
        <mxCell id="pWOpX_RLzRtSu-hWJfGu-9" value="city" style="ellipse;whiteSpace=wrap;html=1;" parent="1" vertex="1">
          <mxGeometry x="240" y="30" width="80" height="50" as="geometry" />
        </mxCell>
        <mxCell id="pWOpX_RLzRtSu-hWJfGu-10" value="" style="endArrow=none;html=1;rounded=0;exitX=0;exitY=0;exitDx=0;exitDy=0;" parent="1" source="pWOpX_RLzRtSu-hWJfGu-4" edge="1">
          <mxGeometry width="50" height="50" relative="1" as="geometry">
            <mxPoint x="200" y="130" as="sourcePoint" />
            <mxPoint x="180" y="80" as="targetPoint" />
          </mxGeometry>
        </mxCell>
        <mxCell id="pWOpX_RLzRtSu-hWJfGu-12" value="" style="endArrow=none;html=1;rounded=0;entryX=0;entryY=1;entryDx=0;entryDy=0;exitX=0.75;exitY=0.2;exitDx=0;exitDy=0;exitPerimeter=0;" parent="1" source="pWOpX_RLzRtSu-hWJfGu-4" target="pWOpX_RLzRtSu-hWJfGu-9" edge="1">
          <mxGeometry width="50" height="50" relative="1" as="geometry">
            <mxPoint x="240" y="100" as="sourcePoint" />
            <mxPoint x="260" y="70" as="targetPoint" />
          </mxGeometry>
        </mxCell>
        <mxCell id="pWOpX_RLzRtSu-hWJfGu-16" style="edgeStyle=orthogonalEdgeStyle;rounded=0;orthogonalLoop=1;jettySize=auto;html=1;exitX=0.25;exitY=0;exitDx=0;exitDy=0;entryX=0.75;entryY=1;entryDx=0;entryDy=0;entryPerimeter=0;" parent="1" source="pWOpX_RLzRtSu-hWJfGu-1" target="pWOpX_RLzRtSu-hWJfGu-2" edge="1">
          <mxGeometry relative="1" as="geometry" />
        </mxCell>
        <mxCell id="pWOpX_RLzRtSu-hWJfGu-20" value="&lt;b&gt;&lt;font style=&quot;font-size: 14px;&quot;&gt;Instrument&lt;/font&gt;&lt;/b&gt;" style="rounded=0;whiteSpace=wrap;html=1;" parent="1" vertex="1">
          <mxGeometry x="505" y="240" width="120" height="60" as="geometry" />
        </mxCell>
        <mxCell id="pWOpX_RLzRtSu-hWJfGu-22" value="" style="edgeStyle=orthogonalEdgeStyle;rounded=0;orthogonalLoop=1;jettySize=auto;html=1;" parent="1" source="pWOpX_RLzRtSu-hWJfGu-21" target="pWOpX_RLzRtSu-hWJfGu-20" edge="1">
          <mxGeometry relative="1" as="geometry">
            <Array as="points">
              <mxPoint x="545" y="230" />
              <mxPoint x="545" y="230" />
            </Array>
          </mxGeometry>
        </mxCell>
        <mxCell id="pWOpX_RLzRtSu-hWJfGu-21" value="&lt;u&gt;Name&lt;/u&gt;" style="ellipse;whiteSpace=wrap;html=1;" parent="1" vertex="1">
          <mxGeometry x="515" y="140" width="60" height="50" as="geometry" />
        </mxCell>
        <mxCell id="pWOpX_RLzRtSu-hWJfGu-25" value="key" style="ellipse;whiteSpace=wrap;html=1;" parent="1" vertex="1">
          <mxGeometry x="595" y="160" width="60" height="50" as="geometry" />
        </mxCell>
        <mxCell id="pWOpX_RLzRtSu-hWJfGu-26" style="edgeStyle=orthogonalEdgeStyle;rounded=0;orthogonalLoop=1;jettySize=auto;html=1;exitX=0.75;exitY=0;exitDx=0;exitDy=0;entryX=0.333;entryY=1;entryDx=0;entryDy=0;entryPerimeter=0;" parent="1" source="pWOpX_RLzRtSu-hWJfGu-20" target="pWOpX_RLzRtSu-hWJfGu-25" edge="1">
          <mxGeometry relative="1" as="geometry" />
        </mxCell>
        <mxCell id="pWOpX_RLzRtSu-hWJfGu-29" value="" style="edgeStyle=orthogonalEdgeStyle;rounded=0;orthogonalLoop=1;jettySize=auto;html=1;" parent="1" source="pWOpX_RLzRtSu-hWJfGu-27" target="pWOpX_RLzRtSu-hWJfGu-28" edge="1">
          <mxGeometry relative="1" as="geometry" />
        </mxCell>
        <mxCell id="pWOpX_RLzRtSu-hWJfGu-30" value="" style="edgeStyle=orthogonalEdgeStyle;rounded=0;orthogonalLoop=1;jettySize=auto;html=1;" parent="1" source="pWOpX_RLzRtSu-hWJfGu-27" target="pWOpX_RLzRtSu-hWJfGu-28" edge="1">
          <mxGeometry relative="1" as="geometry" />
        </mxCell>
        <mxCell id="pWOpX_RLzRtSu-hWJfGu-33" style="edgeStyle=orthogonalEdgeStyle;rounded=0;orthogonalLoop=1;jettySize=auto;html=1;exitX=0.5;exitY=1;exitDx=0;exitDy=0;entryX=0.5;entryY=0;entryDx=0;entryDy=0;" parent="1" source="pWOpX_RLzRtSu-hWJfGu-27" target="pWOpX_RLzRtSu-hWJfGu-31" edge="1">
          <mxGeometry relative="1" as="geometry">
            <Array as="points">
              <mxPoint x="70" y="530" />
            </Array>
          </mxGeometry>
        </mxCell>
        <mxCell id="pWOpX_RLzRtSu-hWJfGu-36" style="edgeStyle=orthogonalEdgeStyle;rounded=0;orthogonalLoop=1;jettySize=auto;html=1;exitX=0.5;exitY=1;exitDx=0;exitDy=0;entryX=0.5;entryY=0;entryDx=0;entryDy=0;" parent="1" source="pWOpX_RLzRtSu-hWJfGu-27" target="pWOpX_RLzRtSu-hWJfGu-34" edge="1">
          <mxGeometry relative="1" as="geometry" />
        </mxCell>
        <mxCell id="pWOpX_RLzRtSu-hWJfGu-27" value="&lt;b&gt;&lt;font style=&quot;font-size: 14px;&quot;&gt;Album&lt;/font&gt;&lt;/b&gt;" style="rounded=0;whiteSpace=wrap;html=1;" parent="1" vertex="1">
          <mxGeometry x="90" y="470" width="120" height="60" as="geometry" />
        </mxCell>
        <mxCell id="pWOpX_RLzRtSu-hWJfGu-28" value="&lt;u&gt;Title&lt;/u&gt;" style="ellipse;whiteSpace=wrap;html=1;rounded=0;" parent="1" vertex="1">
          <mxGeometry x="-10" y="490" width="80" height="40" as="geometry" />
        </mxCell>
        <mxCell id="pWOpX_RLzRtSu-hWJfGu-31" value="copy-date" style="ellipse;whiteSpace=wrap;html=1;rounded=0;" parent="1" vertex="1">
          <mxGeometry x="30" y="550" width="80" height="40" as="geometry" />
        </mxCell>
        <mxCell id="pWOpX_RLzRtSu-hWJfGu-34" value="album identifier" style="ellipse;whiteSpace=wrap;html=1;" parent="1" vertex="1">
          <mxGeometry x="115" y="560" width="70" height="40" as="geometry" />
        </mxCell>
        <mxCell id="pWOpX_RLzRtSu-hWJfGu-40" style="edgeStyle=orthogonalEdgeStyle;rounded=0;orthogonalLoop=1;jettySize=auto;html=1;exitX=0.25;exitY=1;exitDx=0;exitDy=0;entryX=0.5;entryY=0;entryDx=0;entryDy=0;" parent="1" source="pWOpX_RLzRtSu-hWJfGu-37" target="pWOpX_RLzRtSu-hWJfGu-38" edge="1">
          <mxGeometry relative="1" as="geometry" />
        </mxCell>
        <mxCell id="pWOpX_RLzRtSu-hWJfGu-37" value="&lt;b&gt;&lt;font style=&quot;font-size: 14px;&quot;&gt;Song&lt;/font&gt;&lt;/b&gt;" style="rounded=0;whiteSpace=wrap;html=1;" parent="1" vertex="1">
          <mxGeometry x="385" y="470" width="120" height="60" as="geometry" />
        </mxCell>
        <mxCell id="pWOpX_RLzRtSu-hWJfGu-38" value="&lt;u&gt;Title&lt;/u&gt;" style="ellipse;whiteSpace=wrap;html=1;" parent="1" vertex="1">
          <mxGeometry x="355" y="550" width="70" height="50" as="geometry" />
        </mxCell>
        <mxCell id="pWOpX_RLzRtSu-hWJfGu-39" value="author" style="ellipse;whiteSpace=wrap;html=1;" parent="1" vertex="1">
          <mxGeometry x="445" y="550" width="70" height="50" as="geometry" />
        </mxCell>
        <mxCell id="pWOpX_RLzRtSu-hWJfGu-41" style="edgeStyle=orthogonalEdgeStyle;rounded=0;orthogonalLoop=1;jettySize=auto;html=1;exitX=0.5;exitY=1;exitDx=0;exitDy=0;entryX=0.331;entryY=-0.008;entryDx=0;entryDy=0;entryPerimeter=0;" parent="1" source="pWOpX_RLzRtSu-hWJfGu-37" target="pWOpX_RLzRtSu-hWJfGu-39" edge="1">
          <mxGeometry relative="1" as="geometry" />
        </mxCell>
        <mxCell id="pWOpX_RLzRtSu-hWJfGu-42" value="Play" style="rhombus;whiteSpace=wrap;html=1;" parent="1" vertex="1">
          <mxGeometry x="320" y="250" width="80" height="80" as="geometry" />
        </mxCell>
        <mxCell id="pWOpX_RLzRtSu-hWJfGu-45" value="" style="endArrow=none;html=1;rounded=0;exitX=1;exitY=0.75;exitDx=0;exitDy=0;entryX=0;entryY=0.5;entryDx=0;entryDy=0;" parent="1" source="pWOpX_RLzRtSu-hWJfGu-1" target="pWOpX_RLzRtSu-hWJfGu-42" edge="1">
          <mxGeometry width="50" height="50" relative="1" as="geometry">
            <mxPoint x="270" y="320" as="sourcePoint" />
            <mxPoint x="320" y="270" as="targetPoint" />
          </mxGeometry>
        </mxCell>
        <mxCell id="pWOpX_RLzRtSu-hWJfGu-46" value="" style="endArrow=none;html=1;rounded=0;exitX=1;exitY=0.5;exitDx=0;exitDy=0;entryX=0.042;entryY=0.5;entryDx=0;entryDy=0;entryPerimeter=0;" parent="1" source="pWOpX_RLzRtSu-hWJfGu-42" target="pWOpX_RLzRtSu-hWJfGu-20" edge="1">
          <mxGeometry width="50" height="50" relative="1" as="geometry">
            <mxPoint x="400" y="320" as="sourcePoint" />
            <mxPoint x="500" y="270" as="targetPoint" />
          </mxGeometry>
        </mxCell>
        <mxCell id="pWOpX_RLzRtSu-hWJfGu-49" value="M" style="text;html=1;align=center;verticalAlign=middle;whiteSpace=wrap;rounded=0;" parent="1" vertex="1">
          <mxGeometry x="200" y="255" width="60" height="30" as="geometry" />
        </mxCell>
        <mxCell id="pWOpX_RLzRtSu-hWJfGu-50" value="M" style="text;html=1;align=center;verticalAlign=middle;whiteSpace=wrap;rounded=0;" parent="1" vertex="1">
          <mxGeometry x="445" y="245" width="60" height="30" as="geometry" />
        </mxCell>
        <mxCell id="pWOpX_RLzRtSu-hWJfGu-51" value="Has" style="rhombus;whiteSpace=wrap;html=1;" parent="1" vertex="1">
          <mxGeometry x="260" y="460" width="80" height="80" as="geometry" />
        </mxCell>
        <mxCell id="pWOpX_RLzRtSu-hWJfGu-52" value="" style="endArrow=none;html=1;rounded=0;exitX=1;exitY=0.5;exitDx=0;exitDy=0;shape=link;" parent="1" source="pWOpX_RLzRtSu-hWJfGu-27" edge="1">
          <mxGeometry width="50" height="50" relative="1" as="geometry">
            <mxPoint x="210" y="550" as="sourcePoint" />
            <mxPoint x="260" y="500" as="targetPoint" />
          </mxGeometry>
        </mxCell>
        <mxCell id="pWOpX_RLzRtSu-hWJfGu-53" value="" style="endArrow=none;html=1;rounded=0;entryX=0;entryY=0.5;entryDx=0;entryDy=0;" parent="1" target="pWOpX_RLzRtSu-hWJfGu-37" edge="1">
          <mxGeometry width="50" height="50" relative="1" as="geometry">
            <mxPoint x="340" y="500" as="sourcePoint" />
            <mxPoint x="390" y="450" as="targetPoint" />
          </mxGeometry>
        </mxCell>
        <mxCell id="pWOpX_RLzRtSu-hWJfGu-55" value="M" style="text;html=1;align=center;verticalAlign=middle;whiteSpace=wrap;rounded=0;" parent="1" vertex="1">
          <mxGeometry x="330" y="470" width="60" height="30" as="geometry" />
        </mxCell>
        <mxCell id="pWOpX_RLzRtSu-hWJfGu-56" value="1" style="text;html=1;align=center;verticalAlign=middle;whiteSpace=wrap;rounded=0;" parent="1" vertex="1">
          <mxGeometry x="200" y="470" width="60" height="30" as="geometry" />
        </mxCell>
        <mxCell id="pWOpX_RLzRtSu-hWJfGu-57" value="performed" style="rhombus;whiteSpace=wrap;html=1;" parent="1" vertex="1">
          <mxGeometry x="240" y="340" width="80" height="80" as="geometry" />
        </mxCell>
        <mxCell id="pWOpX_RLzRtSu-hWJfGu-60" value="" style="endArrow=none;html=1;rounded=0;exitX=1;exitY=0.5;exitDx=0;exitDy=0;entryX=0.405;entryY=-0.047;entryDx=0;entryDy=0;entryPerimeter=0;shape=link;" parent="1" source="pWOpX_RLzRtSu-hWJfGu-57" target="pWOpX_RLzRtSu-hWJfGu-37" edge="1">
          <mxGeometry width="50" height="50" relative="1" as="geometry">
            <mxPoint x="310" y="390" as="sourcePoint" />
            <mxPoint x="440" y="380" as="targetPoint" />
          </mxGeometry>
        </mxCell>
        <mxCell id="pWOpX_RLzRtSu-hWJfGu-61" value="" style="endArrow=none;html=1;rounded=0;entryX=0.75;entryY=1;entryDx=0;entryDy=0;" parent="1" target="pWOpX_RLzRtSu-hWJfGu-1" edge="1">
          <mxGeometry width="50" height="50" relative="1" as="geometry">
            <mxPoint x="240" y="380" as="sourcePoint" />
            <mxPoint x="60" y="310" as="targetPoint" />
          </mxGeometry>
        </mxCell>
        <mxCell id="pWOpX_RLzRtSu-hWJfGu-62" value="M" style="text;html=1;align=center;verticalAlign=middle;whiteSpace=wrap;rounded=0;" parent="1" vertex="1">
          <mxGeometry x="125" y="290" width="60" height="30" as="geometry" />
        </mxCell>
        <mxCell id="pWOpX_RLzRtSu-hWJfGu-63" value="M" style="text;html=1;align=center;verticalAlign=middle;whiteSpace=wrap;rounded=0;" parent="1" vertex="1">
          <mxGeometry x="415" y="430" width="60" height="30" as="geometry" />
        </mxCell>
        <mxCell id="pWOpX_RLzRtSu-hWJfGu-65" value="Has" style="rhombus;whiteSpace=wrap;html=1;" parent="1" vertex="1">
          <mxGeometry x="70" y="340" width="80" height="80" as="geometry" />
        </mxCell>
        <mxCell id="pWOpX_RLzRtSu-hWJfGu-66" value="" style="endArrow=none;html=1;rounded=0;exitX=0.163;exitY=-0.06;exitDx=0;exitDy=0;exitPerimeter=0;shape=link;" parent="1" source="pWOpX_RLzRtSu-hWJfGu-27" edge="1">
          <mxGeometry width="50" height="50" relative="1" as="geometry">
            <mxPoint x="60" y="470" as="sourcePoint" />
            <mxPoint x="110" y="420" as="targetPoint" />
          </mxGeometry>
        </mxCell>
        <mxCell id="pWOpX_RLzRtSu-hWJfGu-67" value="" style="endArrow=none;html=1;rounded=0;exitX=0.5;exitY=0;exitDx=0;exitDy=0;entryX=0.25;entryY=1;entryDx=0;entryDy=0;" parent="1" source="pWOpX_RLzRtSu-hWJfGu-65" target="pWOpX_RLzRtSu-hWJfGu-1" edge="1">
          <mxGeometry width="50" height="50" relative="1" as="geometry">
            <mxPoint x="70" y="340" as="sourcePoint" />
            <mxPoint x="120" y="290" as="targetPoint" />
          </mxGeometry>
        </mxCell>
        <mxCell id="pWOpX_RLzRtSu-hWJfGu-68" value="1" style="text;html=1;align=center;verticalAlign=middle;whiteSpace=wrap;rounded=0;" parent="1" vertex="1">
          <mxGeometry x="65" y="290" width="60" height="30" as="geometry" />
        </mxCell>
        <mxCell id="pWOpX_RLzRtSu-hWJfGu-69" value="M" style="text;html=1;align=center;verticalAlign=middle;whiteSpace=wrap;rounded=0;" parent="1" vertex="1">
          <mxGeometry x="65" y="440" width="60" height="30" as="geometry" />
        </mxCell>
      </root>
    </mxGraphModel>
  </diagram>
</mxfile>
